<svg id="グループ_4" data-name="グループ 4" xmlns="http://www.w3.org/2000/svg" width="17.8" height="17.8" viewBox="0 0 17.8 17.8">
  <path id="パス_169" data-name="パス 169" d="M12.979,5.683c2.376,0,2.658.009,3.6.052a4.926,4.926,0,0,1,1.653.306A2.947,2.947,0,0,1,19.917,7.73a4.926,4.926,0,0,1,.306,1.653c.043.938.052,1.22.052,3.6s-.009,2.658-.052,3.6a4.926,4.926,0,0,1-.306,1.653,2.947,2.947,0,0,1-1.689,1.689,4.926,4.926,0,0,1-1.653.306c-.938.043-1.22.052-3.6.052s-2.658-.009-3.6-.052a4.926,4.926,0,0,1-1.653-.306,2.947,2.947,0,0,1-1.689-1.689,4.926,4.926,0,0,1-.306-1.653c-.043-.938-.052-1.22-.052-3.6s.009-2.658.052-3.6A4.926,4.926,0,0,1,6.041,7.73,2.947,2.947,0,0,1,7.73,6.041a4.926,4.926,0,0,1,1.653-.306c.938-.043,1.22-.052,3.6-.052m0-1.6c-2.417,0-2.72.01-3.669.054a6.533,6.533,0,0,0-2.16.414,4.551,4.551,0,0,0-2.6,2.6,6.533,6.533,0,0,0-.414,2.16c-.043.949-.054,1.252-.054,3.669s.01,2.72.054,3.669a6.533,6.533,0,0,0,.414,2.16,4.551,4.551,0,0,0,2.6,2.6,6.533,6.533,0,0,0,2.16.414c.949.043,1.252.054,3.669.054s2.72-.01,3.669-.054a6.533,6.533,0,0,0,2.16-.414,4.551,4.551,0,0,0,2.6-2.6,6.533,6.533,0,0,0,.414-2.16c.043-.949.054-1.252.054-3.669s-.01-2.72-.054-3.669a6.533,6.533,0,0,0-.414-2.16,4.551,4.551,0,0,0-2.6-2.6,6.533,6.533,0,0,0-2.16-.414c-.949-.043-1.252-.054-3.669-.054Z" transform="translate(-4.079 -4.079)" fill="#707070"/>
  <path id="パス_170" data-name="パス 170" d="M131.205,126.635a4.57,4.57,0,1,0,4.57,4.57A4.57,4.57,0,0,0,131.205,126.635Zm0,7.537a2.967,2.967,0,1,1,2.967-2.967A2.967,2.967,0,0,1,131.205,134.172Z" transform="translate(-122.305 -122.305)" fill="#707070"/>
  <ellipse id="楕円形_163" data-name="楕円形 163" cx="1.068" cy="1.068" rx="1.068" ry="1.068" transform="translate(12.583 3.081)" fill="#707070"/>
</svg>
