<svg xmlns="http://www.w3.org/2000/svg" width="19" height="19" viewBox="0 0 19 19">
  <g id="グループ_53" data-name="グループ 53" transform="translate(-0.303)">
    <g id="Dark_Blue" data-name="Dark Blue" transform="translate(0.303 0)">
      <circle id="楕円形_162" data-name="楕円形 162" cx="9.5" cy="9.5" r="9.5" fill="#707070"/>
    </g>
    <g id="Logo_FIXED" data-name="Logo — FIXED" transform="translate(4.407 5.264)">
      <path id="パス_168" data-name="パス 168" d="M93.09,123.784a6.618,6.618,0,0,0,6.663-6.663c0-.1,0-.2-.007-.3a4.765,4.765,0,0,0,1.168-1.213,4.675,4.675,0,0,1-1.345.369,2.351,2.351,0,0,0,1.03-1.3,4.694,4.694,0,0,1-1.487.568,2.344,2.344,0,0,0-3.991,2.136,6.649,6.649,0,0,1-4.827-2.447,2.344,2.344,0,0,0,.725,3.127,2.325,2.325,0,0,1-1.061-.293c0,.01,0,.02,0,.03a2.343,2.343,0,0,0,1.879,2.3,2.338,2.338,0,0,1-1.058.04,2.345,2.345,0,0,0,2.188,1.627,4.7,4.7,0,0,1-2.909,1,4.768,4.768,0,0,1-.559-.032,6.63,6.63,0,0,0,3.59,1.052" transform="translate(-89.5 -114.507)" fill="#f0f0f0"/>
    </g>
  </g>
</svg>
