<svg id="グループ_2" data-name="グループ 2" xmlns="http://www.w3.org/2000/svg" width="18.834" height="18.704" viewBox="0 0 18.834 18.704">
  <path id="パス_166" data-name="パス 166" d="M-636.85-402.591A9.413,9.413,0,0,0-646.267-412a9.413,9.413,0,0,0-9.417,9.409,9.414,9.414,0,0,0,7.946,9.3v-6.575h-2.391v-2.72h2.391v-2.073a3.322,3.322,0,0,1,3.557-3.661,14.494,14.494,0,0,1,2.108.184v2.316h-1.187a1.36,1.36,0,0,0-1.535,1.469v1.765h2.612l-.417,2.72H-644.8v6.575A9.414,9.414,0,0,0-636.85-402.591Z" transform="translate(655.684 412)" fill="#707070"/>
</svg>
