<svg xmlns="http://www.w3.org/2000/svg" xmlns:xlink="http://www.w3.org/1999/xlink" width="15" height="17" viewBox="0 0 15 17">
  <defs>
    <clipPath id="clip-path">
      <path id="交差_1" data-name="交差 1" d="M1.193,17a2.2,2.2,0,0,1-.266-.012,1.08,1.08,0,0,1-.914-.917A2.229,2.229,0,0,1,0,15.8V5.091c0-.1.006-.194.012-.261A1.7,1.7,0,0,1,.521,3.785L3.771.522A1.685,1.685,0,0,1,4.812.012C4.879.006,4.976,0,5.073,0h8.735a2.265,2.265,0,0,1,.266.012,1.081,1.081,0,0,1,.914.918A2.316,2.316,0,0,1,15,1.2V15.8a2.32,2.32,0,0,1-.012.267,1.081,1.081,0,0,1-.914.917,2.2,2.2,0,0,1-.266.012ZM5.049,2.278,2.27,5.067a.422.422,0,0,0-.127.31v9.472H12.857V2.151h-7.5A.419.419,0,0,0,5.049,2.278ZM4.443,7.485a1.272,1.272,0,0,1-.436-.049.861.861,0,0,1,0-1.628,1.275,1.275,0,0,1,.436-.049h1.3V4.46a1.286,1.286,0,0,1,.048-.437.856.856,0,0,1,1.622,0,1.283,1.283,0,0,1,.049.437v2a1.667,1.667,0,0,1-.024.352.886.886,0,0,1-.642.644,1.653,1.653,0,0,1-.351.024Z" transform="translate(-0.09 -0.335)" fill="#707070"/>
    </clipPath>
  </defs>
  <g id="グループ_56" data-name="グループ 56" transform="translate(0.09 0.335)">
    <g id="グループ_55" data-name="グループ 55" transform="translate(0 0)">
      <g id="グループ_54" data-name="グループ 54" transform="translate(0 0)" clip-path="url(#clip-path)">
        <rect id="長方形_296" data-name="長方形 296" width="15" height="18" transform="translate(-0.09 -0.335)" fill="#707070"/>
      </g>
    </g>
  </g>
</svg>
