<svg xmlns="http://www.w3.org/2000/svg" width="93.856" height="17.957" viewBox="0 0 93.856 17.957">
  <g id="グループ_1" data-name="グループ 1" transform="translate(-260.269 -172.373)">
    <path id="パス_1" data-name="パス 1" d="M486.993,190.859H489.7V175.843h4.909v-2.28H482.174v2.28h4.819Z" transform="translate(-160.677 -0.861)" fill="#767676"/>
    <path id="パス_2" data-name="パス 2" d="M270.559,181.071h-7.583v-5.228h8.547v-2.28H260.269v17.3h2.707v-7.508h7.583Z" transform="translate(0 -0.861)" fill="#767676"/>
    <path id="パス_3" data-name="パス 3" d="M321.681,183.879a5.362,5.362,0,0,0-2.046-10.317h-7.318v17.3h2.707v-6.575h3.814l3.521,6.575h2.828l-3.852-6.837ZM315.113,182h-.089v-6.16h4.52a3.08,3.08,0,0,1,.05,6.16Z" transform="translate(-37.687 -0.861)" fill="#767676"/>
    <path id="パス_4" data-name="パス 4" d="M424.886,181.352c0-4.012,2.068-6.707,5.145-6.707a4.794,4.794,0,0,1,4.473,3.136l2.408-.64a7.225,7.225,0,0,0-6.991-4.767c-4.633,0-7.746,3.608-7.746,8.979s3.113,8.978,7.746,8.978a7.329,7.329,0,0,0,7.121-5.117l-2.4-.639a4.908,4.908,0,0,1-4.608,3.484C426.953,188.058,424.886,185.363,424.886,181.352Z" transform="translate(-117.233 0)" fill="#767676"/>
    <path id="パス_5" data-name="パス 5" d="M372.116,173.562l-5.621,17.3h2.667l1.371-4.356,6.427,0,1.367,4.358h2.667l-5.62-17.3Zm-.867,10.658,2.5-8.15,2.5,8.15Z" transform="translate(-76.916 -0.861)" fill="#767676"/>
    <path id="パス_6" data-name="パス 6" d="M528.536,173.562l-5.621,17.3h2.667l1.371-4.356,6.427,0,1.367,4.358h2.667l-5.62-17.3Zm-.867,10.658,2.5-8.15,2.5,8.15Z" transform="translate(-190.177 -0.861)" fill="#767676"/>
    <path id="パス_7" data-name="パス 7" d="M577.507,173.181a3.668,3.668,0,1,0,3.668,3.668A3.672,3.672,0,0,0,577.507,173.181Zm2.686,5.225h-2.345l1.172-2.031Zm-.015.394a3.3,3.3,0,0,1-5.342,0Zm-3.844-2.622h2.345l-1.172,2.031Zm.831,2.228h-2.345l1.172-2.031Zm-.831-2.622,1.172-2.03,1.172,2.03Zm.831-2.226-2.678,4.639a3.268,3.268,0,0,1-.291-1.348A3.33,3.33,0,0,1,577.165,173.558Zm3.653,3.291a3.267,3.267,0,0,1-.291,1.348l-2.678-4.639A3.33,3.33,0,0,1,580.818,176.849Z" transform="translate(-227.05 -0.585)" fill="#767676"/>
  </g>
</svg>
